<svg width="182" height="25" viewBox="0 0 182 25" fill="none" xmlns="http://www.w3.org/2000/svg">
<path d="M6.3 18C4.8 18 3.6 17.7 2.6 17.2C1.6 16.7 0.7 16 0 15.1L2.7 13C3.1 13.7 3.6 14.2 4.2 14.5C4.8 14.9 5.5 15 6.2 15C7 15 7.6 14.8 8 14.4C8.4 14 8.6 13.5 8.6 12.9C8.6 12.6 8.5 12.3 8.3 12.1C8.3 12 8 11.8 7.7 11.6C7.4 11.4 7 11.3 6.6 11.2C6.2 11.1 5.8 10.9 5.4 10.8C4.9 10.6 4.3 10.4 3.8 10.2C3.3 10 2.8 9.70002 2.3 9.40002C1.8 9.10002 1.5 8.70002 1.3 8.20002C1 7.70002 0.9 7.10002 0.9 6.40002C0.9 5.80002 1 5.20002 1.3 4.60002C1.6 4.10002 1.9 3.60002 2.4 3.20002C2.9 2.80002 3.4 2.50002 4.1 2.20002C4.7 2.00002 5.4 1.90002 6.2 1.90002C6.8 1.90002 7.4 2.00002 7.9 2.10002C8.4 2.20002 8.9 2.40002 9.3 2.60002C9.7 2.80002 10.1 3.10002 10.5 3.30002C10.9 3.60002 11.2 3.90002 11.5 4.20002L9.1 6.20002C8.4 5.10002 7.5 4.60002 6.2 4.60002C5.5 4.60002 4.9 4.80002 4.5 5.10002C4.2 5.40002 4 5.90002 4 6.40002C4 6.70002 4 6.90002 4.2 7.10002C4.4 7.30002 4.6 7.50002 4.9 7.70002C5.2 7.90002 5.6 8.00002 6 8.10002C6.4 8.20002 6.8 8.40002 7.3 8.50002C7.8 8.70002 8.4 8.90002 8.9 9.10002C9.4 9.30002 9.9 9.60002 10.4 10C10.8 10.3 11.2 10.8 11.5 11.3C11.8 11.8 11.9 12.4 11.9 13.2C11.9 13.8 11.8 14.4 11.5 15C11.3 15.6 10.9 16.1 10.4 16.5C9.9 16.9 9.4 17.3 8.7 17.6C8 17.9 7.2 18 6.3 18Z" fill="black"/>
<path d="M19.5001 18C18.7001 18 18.0001 17.9 17.2001 17.6C16.4001 17.3 15.8001 16.9 15.2001 16.3C14.6001 15.7 14.1001 15.1 13.7001 14.3C13.3001 13.5 13.1001 12.6 13.1001 11.6C13.1001 10.6 13.3001 9.69998 13.6001 8.89998C13.9001 8.09998 14.4001 7.39998 15.0001 6.89998C15.6001 6.29998 16.3001 5.89998 17.0001 5.59998C17.7001 5.29998 18.6001 5.19998 19.4001 5.19998C20.3001 5.19998 21.0001 5.39998 21.8001 5.69998C22.6001 5.99998 23.1001 6.39998 23.6001 6.99998V5.09998H26.6001V18H23.6001V16.2C23.1001 16.8 22.5001 17.2 21.8001 17.6C21.1001 17.9 20.3001 18 19.5001 18ZM20.0001 15.3C20.6001 15.3 21.1001 15.2 21.5001 15C21.9001 14.8 22.4001 14.5 22.7001 14.2C23.0001 13.9 23.3001 13.5 23.5001 13C23.7001 12.5 23.8001 12.1 23.8001 11.5C23.8001 11 23.7001 10.5 23.5001 10.1C23.3001 9.59998 23.0001 9.19998 22.7001 8.89998C22.4001 8.59998 22.0001 8.29998 21.5001 8.09998C21.0001 7.89998 20.5001 7.79998 20.0001 7.79998C19.5001 7.79998 18.9001 7.89998 18.5001 8.09998C18.0001 8.29998 17.6001 8.59998 17.3001 8.89998C16.9001 9.19998 16.7001 9.59998 16.5001 10.1C16.3001 10.6 16.2001 11 16.2001 11.6C16.2001 12.2 16.3001 12.6 16.5001 13.1C16.7001 13.6 17.0001 14 17.3001 14.3C17.7001 14.6 18.1001 14.9 18.5001 15.1C18.9001 15.3 19.4001 15.3 20.0001 15.3Z" fill="black"/>
<path d="M28.3999 5.09998H31.2999V6.79998C31.6999 6.29998 32.1999 5.89998 32.8999 5.59998C33.4999 5.29998 34.1999 5.09998 34.9999 5.09998C35.9999 5.09998 36.8999 5.29998 37.5999 5.69998C38.2999 6.09998 38.7999 6.59998 39.1999 7.29998C39.5999 6.59998 40.1999 6.09998 40.8999 5.69998C41.5999 5.29998 42.4999 5.09998 43.3999 5.09998C45.0999 5.09998 46.3999 5.59998 47.2999 6.49998C48.1999 7.39998 48.5999 8.69998 48.5999 10.4V18H45.5999V10.7C45.5999 9.79998 45.3999 9.09998 44.8999 8.49998C44.3999 7.89998 43.6999 7.69998 42.7999 7.69998C41.9999 7.69998 41.2999 7.99998 40.7999 8.49998C40.2999 8.99998 39.9999 9.89998 39.9999 11V18H36.9999V10.6C36.9999 9.69998 36.7999 8.99998 36.2999 8.49998C35.7999 7.99998 35.1999 7.69998 34.2999 7.69998C33.4999 7.69998 32.7999 7.99998 32.1999 8.49998C31.6999 9.09998 31.3999 9.89998 31.3999 11V18H28.3999V5.09998Z" fill="black"/>
<path d="M55.2 18C53.8 18 52.6 17.7 51.7 17.2C50.8 16.7 50 15.9 49.5 14.9L52.3 13.7C52.6 14.3 53 14.7 53.6 15C54.2 15.3 54.7 15.5 55.4 15.5C56.1 15.5 56.7 15.4 57 15.1C57.4 14.8 57.5 14.5 57.5 14.1C57.5 13.9 57.4 13.7 57.2 13.6C57 13.5 56.8 13.3 56.5 13.2C56.2 13.1 55.9 13 55.5 12.9C55.1 12.8 54.8 12.8 54.4 12.7C53.8 12.6 53.3 12.5 52.8 12.3C52.3 12.1 51.8 11.9 51.4 11.7C51 11.4 50.6 11.1 50.4 10.7C50.2 9.99995 50 9.49995 50 8.89995C50 8.39995 50.1 7.89995 50.4 7.49995C50.6 6.99995 51 6.59995 51.4 6.29995C51.8 5.99995 52.4 5.69995 53 5.49995C53.6 5.29995 54.3 5.19995 55.1 5.19995C56.4 5.19995 57.5 5.39995 58.3 5.89995C59.2 6.39995 59.8 6.99995 60.3 7.89995L57.8 8.99995C57.5 8.59995 57.2 8.19995 56.7 7.99995C56.2 7.79995 55.7 7.59995 55.1 7.59995C54.4 7.59995 53.9 7.69995 53.5 7.99995C53.1 8.29995 53 8.49995 53 8.89995C53 9.29995 53.2 9.59995 53.7 9.79995C54.2 9.99995 54.9 10.2 55.9 10.4C56.4 10.5 57 10.6 57.5 10.8C58 11 58.5 11.2 59 11.5C59.4 11.8 59.8 12.1 60.1 12.5C60.4 12.9 60.5 13.5 60.5 14.1C60.5 14.5 60.4 15 60.2 15.5C60 16 59.7 16.4 59.2 16.8C58.8 17.2 58.2 17.5 57.6 17.8C57 17.9 56.2 18 55.2 18Z" fill="black"/>
<path d="M73.2998 18H70.3998V16.4C69.9998 16.9 69.4998 17.3 68.8998 17.6C68.2998 17.9 67.5998 18 66.6998 18C65.1998 18 63.9998 17.5 63.0998 16.6C62.1998 15.6 61.7998 14.3 61.7998 12.6V5.09998H64.7998V12.3C64.7998 13.3 64.9998 14 65.4998 14.6C65.8998 15.2 66.5998 15.4 67.5998 15.4C68.3998 15.4 69.0998 15.1 69.5998 14.5C70.0998 13.9 70.3998 13.1 70.3998 12V5.09998H73.3998V18H73.2998Z" fill="black"/>
<path d="M75.1001 5.09998H78.0001V6.89998C78.4001 6.39998 79.0001 5.89998 79.6001 5.59998C80.3001 5.29998 81.0001 5.09998 81.8001 5.09998C83.4001 5.09998 84.6001 5.59998 85.6001 6.49998C86.5001 7.49998 87.0001 8.79998 87.0001 10.5V18H84.0001V10.8C84.0001 9.79998 83.8001 9.09998 83.3001 8.49998C82.8001 7.89998 82.1001 7.69998 81.1001 7.69998C80.2001 7.69998 79.5001 7.99998 79.0001 8.59998C78.4001 9.19998 78.1001 9.99998 78.1001 11.1V18H75.1001V5.09998Z" fill="black"/>
<path d="M98.8002 16C98.3002 16.6 97.7002 17.1 97.0002 17.5C96.3002 17.9 95.5002 18 94.6002 18C93.8002 18 93.1002 17.9 92.3002 17.6C91.5002 17.3 90.9002 16.9 90.3002 16.3C89.7002 15.7 89.2002 15.1 88.8002 14.3C88.4002 13.5 88.2002 12.6 88.2002 11.6C88.2002 10.6 88.4002 9.69998 88.7002 8.89998C89.0002 8.09998 89.5002 7.39998 90.1002 6.89998C90.7002 6.29998 91.4002 5.89998 92.1002 5.59998C92.9002 5.29998 93.7002 5.19998 94.5002 5.19998C95.4002 5.19998 96.1002 5.39998 96.9002 5.69998C97.6002 5.99998 98.2002 6.49998 98.7002 6.99998V5.09998H101.7V17.5C101.7 18.4 101.6 19.2 101.3 20C101 20.8 100.6 21.5 100 22.1C99.4002 22.7 98.8002 23.1 97.9002 23.5C97.1002 23.8 96.1002 24 95.0002 24C94.2002 24 93.4002 23.9 92.7002 23.7C92.0002 23.5 91.4002 23.3 90.9002 22.9C90.4002 22.6 89.9002 22.2 89.5002 21.7C89.1002 21.2 88.7002 20.8 88.4002 20.2L91.0002 18.6C91.5002 19.5 92.0002 20.1 92.6002 20.5C93.2002 20.9 94.0002 21.1 95.0002 21.1C95.6002 21.1 96.1002 21 96.5002 20.8C97.0002 20.6 97.3002 20.3 97.7002 20C98.0002 19.7 98.3002 19.3 98.4002 18.8C98.6002 18.3 98.7002 17.9 98.7002 17.4V16H98.8002ZM95.1002 15.3C95.7002 15.3 96.2002 15.2 96.6002 15C97.0002 14.8 97.5002 14.5 97.8002 14.2C98.1002 13.9 98.4002 13.5 98.6002 13C98.8002 12.5 98.9002 12.1 98.9002 11.5C98.9002 11 98.8002 10.5 98.6002 10.1C98.4002 9.59998 98.1002 9.19998 97.8002 8.89998C97.5002 8.59998 97.1002 8.29998 96.6002 8.09998C96.1002 7.89998 95.6002 7.79998 95.1002 7.79998C94.6002 7.79998 94.0002 7.89998 93.6002 8.09998C93.1002 8.29998 92.7002 8.59998 92.4002 8.89998C92.0002 9.19998 91.8002 9.59998 91.6002 10.1C91.4002 10.6 91.3002 11 91.3002 11.6C91.3002 12.2 91.4002 12.6 91.6002 13.1C91.8002 13.6 92.1002 14 92.4002 14.3C92.8002 14.6 93.2002 14.9 93.6002 15.1C94.0002 15.3 94.6002 15.3 95.1002 15.3Z" fill="black"/>
<path d="M109 1.90002H113.4C114.7 1.90002 116 2.10002 117 2.50002C118.1 2.90002 118.9 3.50002 119.7 4.20002C120.4 4.90002 121 5.80002 121.4 6.70002C121.8 7.60002 122 8.70002 122 9.90002C122 11 121.8 12.1 121.4 13.1C121 14.1 120.4 14.9 119.7 15.6C119 16.3 118.1 16.9 117 17.3C116 17.7 114.9 17.9 113.6 17.9H109V1.90002ZM112 4.70002V15.2H113.2C114.1 15.2 114.9 15.1 115.6 14.8C116.3 14.5 116.9 14.2 117.4 13.7C117.9 13.2 118.3 12.7 118.5 12C118.7 11.3 118.9 10.7 118.9 9.90002C118.9 9.10002 118.8 8.40002 118.5 7.80002C118.3 7.20002 117.9 6.60002 117.4 6.10002C116.9 5.60002 116.3 5.30002 115.6 5.00002C114.9 4.70002 114 4.60002 113 4.60002H112V4.70002Z" fill="black"/>
<path d="M129.6 18C128.6 18 127.7 17.8 126.8 17.5C126 17.2 125.2 16.7 124.7 16.1C124.1 15.5 123.6 14.8 123.3 14.1C123 13.3 122.8 12.5 122.8 11.6C122.8 10.7 123 9.79998 123.3 9.09998C123.6 8.29998 124.1 7.59998 124.7 6.99998C125.3 6.39998 126 5.99998 126.8 5.59998C127.6 5.29998 128.5 5.09998 129.4 5.09998C130.4 5.09998 131.2 5.29998 132.1 5.59998C133 5.89998 133.6 6.29998 134.2 6.89998C134.8 7.49998 135.2 8.09998 135.6 8.89998C135.9 9.69998 136.1 10.5 136.1 11.4V12.5H125.6C125.8 13.4 126.3 14.1 126.9 14.7C127.5 15.3 128.5 15.5 129.5 15.5C130.3 15.5 131.1 15.3 131.7 14.9C132.3 14.5 132.8 13.9 133.1 13.2L135.5 14.6C134.9 15.6 134.2 16.5 133.2 17.1C132.2 17.7 131 18 129.6 18ZM129.4 7.69998C128.5 7.69998 127.7 7.89998 127.1 8.29998C126.4 8.69998 126 9.19998 125.7 9.89998H133C132.8 9.19998 132.4 8.69998 131.7 8.29998C131 7.89998 130.4 7.69998 129.4 7.69998Z" fill="black"/>
<path d="M142.2 18C140.8 18 139.6 17.7 138.7 17.2C137.8 16.7 137 15.9 136.5 14.9L139.3 13.7C139.6 14.3 140 14.7 140.6 15C141.2 15.3 141.7 15.5 142.4 15.5C143.1 15.5 143.7 15.4 144.1 15.1C144.5 14.8 144.6 14.5 144.6 14.1C144.6 13.9 144.5 13.7 144.3 13.6C144.1 13.5 143.9 13.3 143.6 13.2C143.3 13.1 143 13 142.6 12.9C142.2 12.8 141.9 12.8 141.5 12.7C140.9 12.6 140.4 12.5 139.9 12.3C139.4 12.1 138.9 11.9 138.5 11.7C138.1 11.4 137.7 11.1 137.5 10.7C137.3 10.3 137.1 9.70002 137.1 9.10002C137.1 8.60002 137.2 8.10002 137.5 7.70002C137.7 7.20002 138.1 6.80002 138.5 6.50002C138.9 6.20002 139.5 5.90002 140.1 5.70002C140.7 5.50002 141.4 5.40002 142.2 5.40002C143.5 5.40002 144.6 5.60002 145.4 6.10002C146.3 6.60002 146.9 7.20002 147.4 8.10002L144.8 9.00002C144.5 8.60002 144.2 8.20002 143.7 8.00002C143.2 7.80002 142.7 7.60002 142.1 7.60002C141.4 7.60002 140.9 7.70002 140.5 8.00002C140.2 8.30002 140 8.60002 140 8.90002C140 9.30002 140.2 9.60002 140.7 9.80002C141.2 10 141.9 10.2 142.9 10.4C143.4 10.5 144 10.6 144.5 10.8C145 11 145.5 11.2 146 11.5C146.4 11.8 146.8 12.1 147.1 12.5C147.4 12.9 147.5 13.5 147.5 14.1C147.5 14.5 147.4 15 147.2 15.5C147 16 146.7 16.4 146.2 16.8C145.8 17.2 145.2 17.5 144.6 17.8C144 18.1 143.2 18 142.2 18Z" fill="black"/>
<path d="M148.4 1.99998C148.4 1.39998 148.6 0.999976 148.9 0.599976C149.2 0.299976 149.7 0.0999756 150.3 0.0999756C150.9 0.0999756 151.3 0.299976 151.7 0.599976C152.1 0.899976 152.2 1.39998 152.2 1.99998C152.2 2.59998 152 2.99998 151.7 3.29998C151.4 3.59998 150.9 3.79998 150.3 3.79998C149.7 3.79998 149.2 3.59998 148.9 3.29998C148.6 2.99998 148.4 2.49998 148.4 1.99998ZM148.8 5.09998H151.8V18H148.8V5.09998Z" fill="black"/>
<path d="M163.6 16C163.1 16.6 162.5 17.1 161.8 17.5C161.1 17.9 160.3 18 159.4 18C158.6 18 157.9 17.9 157.1 17.6C156.3 17.3 155.7 16.9 155.1 16.3C154.5 15.7 154 15.1 153.6 14.3C153.2 13.5 153.1 12.6 153.1 11.6C153.1 10.6 153.3 9.69998 153.6 8.89998C153.9 8.09998 154.4 7.39998 155 6.89998C155.6 6.29998 156.3 5.89998 157 5.59998C157.8 5.29998 158.6 5.19998 159.4 5.19998C160.3 5.19998 161 5.39998 161.8 5.69998C162.5 5.99998 163.1 6.49998 163.6 6.99998V5.09998H166.6V17.5C166.6 18.4 166.5 19.2 166.2 20C165.9 20.8 165.5 21.5 164.9 22.1C164.3 22.7 163.7 23.1 162.8 23.5C162 23.8 161 24 159.9 24C159.1 24 158.3 23.9 157.6 23.7C156.9 23.5 156.3 23.3 155.8 22.9C155.3 22.6 154.8 22.2 154.4 21.7C154 21.2 153.6 20.8 153.3 20.2L155.9 18.6C156.4 19.5 156.9 20.1 157.5 20.5C158.1 20.9 158.9 21.1 159.9 21.1C160.5 21.1 161 21 161.4 20.8C161.9 20.6 162.2 20.3 162.6 20C162.9 19.7 163.2 19.3 163.3 18.8C163.5 18.3 163.6 17.9 163.6 17.4V16ZM159.9 15.3C160.5 15.3 161 15.2 161.4 15C161.9 14.8 162.3 14.5 162.6 14.2C162.9 13.9 163.2 13.5 163.4 13C163.6 12.5 163.7 12.1 163.7 11.5C163.7 11 163.6 10.5 163.4 10.1C163.2 9.59998 162.9 9.19998 162.6 8.89998C162.3 8.59998 161.9 8.29998 161.4 8.09998C160.9 7.89998 160.4 7.79998 159.9 7.79998C159.4 7.79998 158.8 7.89998 158.4 8.09998C157.9 8.29998 157.5 8.59998 157.2 8.89998C156.9 9.19998 156.6 9.59998 156.4 10.1C156.2 10.6 156.1 11 156.1 11.6C156.1 12.2 156.2 12.6 156.4 13.1C156.6 13.6 156.9 14 157.2 14.3C157.5 14.6 158 14.9 158.4 15.1C158.8 15.3 159.4 15.3 159.9 15.3Z" fill="black"/>
<path d="M168.4 5.09998H171.3V6.89998C171.7 6.39998 172.3 5.89998 172.9 5.59998C173.6 5.29998 174.3 5.09998 175.1 5.09998C176.7 5.09998 177.9 5.59998 178.9 6.49998C179.8 7.49998 180.3 8.79998 180.3 10.5V18H177.3V10.8C177.3 9.79998 177.1 9.09998 176.6 8.49998C176.1 7.89998 175.4 7.69998 174.4 7.69998C173.5 7.69998 172.8 7.99998 172.3 8.59998C171.7 9.19998 171.4 9.99998 171.4 11.1V18H168.4V5.09998Z" fill="black"/>
</svg>
